<svg width="18" height="16" viewBox="0 0 18 16" fill="currentColor" xmlns="http://www.w3.org/2000/svg">
<g id="Hide">
<path id="Hide_2" fill-rule="evenodd" clip-rule="evenodd" d="M7.16923 10.7105C7.68962 11.0632 8.32385 11.2766 8.99874 11.2766C10.7876 11.2766 12.2431 9.808 12.2431 8.00307C12.2431 7.32212 12.0317 6.68218 11.682 6.15711L10.7957 7.05138C10.9421 7.33032 11.0234 7.65849 11.0234 8.00307C11.0234 9.12705 10.1127 10.0459 8.99874 10.0459C8.65723 10.0459 8.33198 9.96388 8.05553 9.8162L7.16923 10.7105ZM14.3572 3.45792C15.5362 4.54088 16.5363 6.00123 17.2844 7.75694C17.3494 7.91282 17.3494 8.09331 17.2844 8.24099C15.5443 12.3267 12.4463 14.7716 8.99874 14.7716H8.99061C7.4213 14.7716 5.91703 14.2547 4.59165 13.3112L3.01421 14.9028C2.89224 15.0259 2.73775 15.0833 2.58326 15.0833C2.42877 15.0833 2.26615 15.0259 2.15231 14.9028C1.94903 14.6977 1.91651 14.3696 2.07913 14.1316L2.10352 14.0988L14.1295 1.96475L14.1295 1.96474C14.1458 1.94834 14.162 1.93193 14.1702 1.91552L14.1702 1.91552C14.1864 1.89911 14.2027 1.8827 14.2108 1.8663L14.9751 1.0951C15.2191 0.857176 15.6012 0.857176 15.837 1.0951C16.081 1.33302 16.081 1.72683 15.837 1.96475L14.3572 3.45792ZM5.74847 8.00627C5.74847 8.21958 5.77287 8.43289 5.80539 8.62979L2.79687 11.6654C1.98375 10.7137 1.27634 9.56507 0.715291 8.24419C0.650242 8.09651 0.650242 7.91602 0.715291 7.76014C2.45536 3.67443 5.55333 1.23777 8.9928 1.23777H9.00093C10.1637 1.23777 11.2939 1.51671 12.3347 2.04179L9.6189 4.782C9.42375 4.74918 9.21234 4.72457 9.00093 4.72457C7.20395 4.72457 5.74847 6.19313 5.74847 8.00627Z" fill="currentColor"/>
</g>
</svg>
