<svg width="16" height="18" viewBox="0 0 16 18" fill="currentColor" xmlns="http://www.w3.org/2000/svg">
<g id="Lock">
<path id="Lock_2" fill-rule="evenodd" clip-rule="evenodd" d="M12.6021 5.16333V6.44111C14.0374 6.88912 15.0832 8.18844 15.0832 9.74033V13.8544C15.0832 15.7756 13.4904 17.3333 11.5267 17.3333H4.47384C2.5093 17.3333 0.916504 15.7756 0.916504 13.8544V9.74033C0.916504 8.18844 1.96313 6.88912 3.39758 6.44111V5.16333C3.40604 2.67898 5.46373 0.666656 7.98714 0.666656C10.5444 0.666656 12.6021 2.67898 12.6021 5.16333ZM8.00407 2.11586C9.72304 2.11586 11.1202 3.48225 11.1202 5.16333V6.26141H4.87944V5.14677C4.88791 3.47397 6.2851 2.11586 8.00407 2.11586ZM8.74077 12.7124C8.74077 13.1182 8.41053 13.4412 7.9956 13.4412C7.58915 13.4412 7.2589 13.1182 7.2589 12.7124V10.874C7.2589 10.4765 7.58915 10.1536 7.9956 10.1536C8.41053 10.1536 8.74077 10.4765 8.74077 10.874V12.7124Z" fill="currentColor"/>
</g>
</svg>
