<svg width="348" height="181" viewBox="0 0 348 181" fill="none" xmlns="http://www.w3.org/2000/svg">
<g clip-path="url(#clip0_531_3261)">
<path d="M113.932 180.5C115.878 180.5 117.455 178.921 117.455 176.974C117.455 175.026 115.878 173.447 113.932 173.447C111.987 173.447 110.409 175.026 110.409 176.974C110.409 178.921 111.987 180.5 113.932 180.5Z" fill="#FF4D67"/>
<path d="M306.118 177.365C308.064 177.365 309.641 175.787 309.641 173.839C309.641 171.891 308.064 170.312 306.118 170.312C304.173 170.312 302.595 171.891 302.595 173.839C302.595 175.787 304.173 177.365 306.118 177.365Z" fill="#FF4D67"/>
<path d="M174 161.388C270.098 161.388 348 159.206 348 156.515C348 153.825 270.098 151.643 174 151.643C77.9025 151.643 0 153.825 0 156.515C0 159.206 77.9025 161.388 174 161.388Z" fill="#EEEEEE"/>
<path d="M122.648 150.051V98.3427H116.909V150.051V155.796H122.648H145.605V150.051H122.648Z" fill="#FF4D67"/>
<path d="M55.9293 98.3427V145.827L40.7967 130.679L40.7622 130.714L40.7301 130.681L25.2601 146.168V98.1632H19.5208V155.617H25.2601V154.293L40.7649 138.772L55.9293 153.952V155.796H61.6686V98.3427H55.9293Z" fill="#2A2B39"/>
<path d="M202.281 97.9834V155.796H230.977V97.9834H202.281ZM225.238 150.051H208.02V103.729H225.238V150.051Z" fill="#FF4D67"/>
<path d="M328.545 103.729V97.9833H299.849V98.3426V103.729V123.838V129.583V150.051V155.796H305.588H328.545V150.051H305.588V129.583H328.545V123.838H305.588V103.729H328.545Z" fill="#FF4D67"/>
<path d="M188.291 103.729V97.9833H159.595V98.3426V103.729V150.051V155.796H165.334H188.291V150.051H165.334V103.729H188.291Z" fill="#2A2B39"/>
<path d="M266.73 103.721C266.51 103.724 266.29 103.727 266.068 103.727C265.845 103.727 265.625 103.724 265.405 103.721C253.758 103.456 245.316 96.1708 247.465 88.527L252.704 69.8802L254.029 65.162L277.504 65.5627L278.931 70.1784L284.547 88.3463C286.925 96.0322 278.483 103.456 266.73 103.721Z" fill="#2A2B39"/>
<path d="M255.233 106.439C254.877 106.439 254.525 106.369 254.196 106.232C253.867 106.096 253.569 105.896 253.317 105.644C253.066 105.393 252.866 105.094 252.73 104.765C252.594 104.436 252.524 104.083 252.524 103.727V91.9767C252.524 91.2576 252.809 90.5679 253.317 90.0593C253.825 89.5508 254.514 89.2651 255.233 89.2651C255.951 89.2651 256.64 89.5508 257.148 90.0593C257.656 90.5679 257.941 91.2576 257.941 91.9767V103.727C257.941 104.083 257.871 104.436 257.735 104.765C257.599 105.094 257.4 105.393 257.148 105.644C256.896 105.896 256.598 106.096 256.269 106.232C255.941 106.369 255.588 106.439 255.233 106.439Z" fill="#2A2B39"/>
<path opacity="0.2" d="M278.931 70.1785C274.928 72.469 270.388 73.6489 265.777 73.5964C261.167 73.544 256.654 72.2611 252.704 69.8802L254.029 65.162L277.504 65.5627L278.931 70.1785Z" fill="black"/>
<path d="M257.608 78.5429C257.459 78.8664 257.248 79.1574 256.987 79.3993C256.726 79.6413 256.42 79.8294 256.086 79.9529C255.753 80.0764 255.398 80.1329 255.043 80.1192C254.687 80.1054 254.338 80.0218 254.015 79.8729L243.351 74.9616C242.699 74.6606 242.194 74.1127 241.945 73.4386C241.696 72.7644 241.725 72.0189 242.025 71.3661C242.325 70.7132 242.872 70.2063 243.545 69.9567C244.218 69.707 244.963 69.7352 245.616 70.0349L256.279 74.9461C256.602 75.095 256.893 75.3061 257.135 75.5674C257.376 75.8287 257.564 76.1351 257.688 76.4691C257.811 76.8031 257.867 77.1581 257.854 77.5139C257.84 77.8698 257.756 78.2194 257.608 78.5429Z" fill="#2A2B39"/>
<path d="M277.94 89.1457C278.954 85.3621 282.287 79.9042 291.635 73.3235C307.936 61.845 298.212 53.2384 297.79 52.8778C296.906 52.1214 297.037 51.2721 298.094 50.9819C298.708 50.8591 299.341 50.869 299.951 51.0111C300.561 51.1532 301.133 51.4242 301.63 51.8059C302.158 52.2429 314.335 62.6529 295.94 75.6035C279.385 87.2603 282.905 94.8696 282.945 94.9426C283.389 95.7564 282.677 96.4076 281.355 96.3988C280.032 96.3901 278.6 95.7238 278.155 94.9108C278.061 94.7389 276.996 92.6679 277.94 89.1457Z" fill="#2A2B39"/>
<path d="M276.903 106.439C277.258 106.439 277.611 106.369 277.939 106.232C278.268 106.096 278.566 105.896 278.818 105.644C279.07 105.393 279.269 105.094 279.405 104.765C279.541 104.436 279.611 104.083 279.611 103.727V91.9767C279.611 91.2576 279.326 90.5679 278.818 90.0593C278.31 89.5508 277.621 89.2651 276.903 89.2651C276.184 89.2651 275.495 89.5508 274.987 90.0593C274.479 90.5679 274.194 91.2576 274.194 91.9767V103.727C274.194 104.083 274.264 104.436 274.4 104.765C274.536 105.094 274.736 105.393 274.987 105.644C275.239 105.896 275.537 106.096 275.866 106.232C276.195 106.369 276.547 106.439 276.903 106.439Z" fill="#2A2B39"/>
<path d="M280.838 98.3427V99.6663L265.333 115.188L250.168 100.007V98.1632H244.429V155.617H250.168V108.132L265.301 123.281L265.335 123.246L265.367 123.278L280.838 107.791V155.796H286.577V98.3427H280.838Z" fill="#2A2B39"/>
<path d="M265.019 148.37C266.965 148.37 268.542 146.791 268.542 144.843C268.542 142.896 266.965 141.317 265.019 141.317C263.074 141.317 261.497 142.896 261.497 144.843C261.497 146.791 263.074 148.37 265.019 148.37Z" fill="#FF4D67"/>
<path d="M274.528 78.5429C274.676 78.8664 274.887 79.1574 275.148 79.3993C275.409 79.6412 275.715 79.8293 276.049 79.9528C276.382 80.0763 276.737 80.1329 277.093 80.1191C277.448 80.1054 277.797 80.0217 278.12 79.8729L288.784 74.9616C289.437 74.661 289.943 74.1132 290.192 73.4387C290.441 72.7642 290.413 72.0182 290.112 71.3649C289.812 70.7115 289.265 70.2044 288.591 69.9549C287.917 69.7055 287.172 69.7342 286.52 70.0348L275.856 74.9461C275.533 75.095 275.242 75.3061 275.001 75.5674C274.759 75.8287 274.571 76.1351 274.448 76.469C274.324 76.803 274.268 77.1581 274.282 77.5139C274.295 77.8697 274.379 78.2194 274.528 78.5429Z" fill="#2A2B39"/>
<path d="M288.223 30.3673C288.457 30.0722 288.626 29.7307 288.718 29.3654C288.811 29.0001 288.825 28.6193 288.76 28.2481L287.286 19.5663L285.812 10.8844C285.732 10.4157 285.531 9.97615 285.228 9.61004C284.925 9.24392 284.531 8.96412 284.085 8.79875C283.64 8.63338 283.159 8.58826 282.691 8.66795C282.222 8.74763 281.783 8.9493 281.418 9.25269L274.644 14.8717L270.563 18.2569C267.842 17.7725 265.06 17.7305 262.325 18.1326L258.394 14.8717L251.62 9.25269C251.255 8.9493 250.816 8.74764 250.347 8.66795C249.879 8.58827 249.398 8.63338 248.953 8.79875C248.508 8.96412 248.114 9.24393 247.81 9.61004C247.507 9.97616 247.306 10.4157 247.226 10.8844L245.752 19.5663L244.278 28.2481C244.199 28.7044 244.24 29.1733 244.396 29.6092C241.869 33.4865 240.427 37.9705 240.218 42.595C240.01 47.2195 241.043 51.8155 243.21 55.9049C245.377 59.9942 248.599 63.4276 252.541 65.8478C256.483 68.2681 261.001 69.5868 265.624 69.6667C270.248 69.7467 274.809 68.585 278.832 66.3026C282.855 64.0201 286.194 60.7002 288.501 56.6882C290.808 52.6763 291.999 48.1188 291.95 43.4898C291.901 38.8609 290.614 34.3296 288.223 30.3673Z" fill="#2A2B39"/>
<path d="M277.328 76.8638L276.947 72.0059L276.565 67.1479C276.545 66.8856 276.455 66.6333 276.307 66.4165C276.158 66.1996 275.955 66.0258 275.717 65.9126C275.48 65.7993 275.217 65.7505 274.955 65.7711C274.693 65.7917 274.441 65.881 274.225 66.0301L270.213 68.7899L267.283 70.8052C267.096 70.5857 266.863 70.4095 266.602 70.2887C266.34 70.1678 266.055 70.1053 265.767 70.1053C265.478 70.1053 265.193 70.1678 264.932 70.2887C264.67 70.4095 264.437 70.5857 264.25 70.8052L261.32 68.7899L257.309 66.03C257.092 65.881 256.84 65.7917 256.578 65.7711C256.316 65.7505 256.053 65.7992 255.816 65.9125C255.579 66.0258 255.375 66.1996 255.227 66.4165C255.078 66.6333 254.988 66.8856 254.968 67.1479L254.586 72.0059L254.205 76.8638C254.184 77.1261 254.233 77.3892 254.346 77.6267C254.459 77.8642 254.633 78.0676 254.849 78.2166C255.066 78.3656 255.318 78.4549 255.58 78.4756C255.842 78.4962 256.105 78.4474 256.342 78.3341L260.736 76.236L264.345 74.512C264.531 74.7004 264.752 74.85 264.996 74.9521C265.24 75.0542 265.502 75.1068 265.767 75.1068C266.031 75.1068 266.293 75.0542 266.537 74.9521C266.781 74.85 267.002 74.7004 267.188 74.512L270.798 76.236L275.191 78.3341C275.428 78.4474 275.691 78.4962 275.953 78.4756C276.215 78.455 276.467 78.3657 276.684 78.2166C276.9 78.0676 277.074 77.8642 277.187 77.6267C277.3 77.3892 277.349 77.1261 277.328 76.8638Z" fill="#FF4D67"/>
<path d="M91.3669 95.7356C91.5866 95.7386 91.8063 95.7416 92.029 95.7416C92.2518 95.7416 92.4715 95.7386 92.6912 95.7356C104.339 95.4705 112.781 88.1853 110.632 80.5416L105.392 61.8947L104.068 57.1765L80.5921 57.5772L79.1655 62.193L73.5494 80.3608C71.1718 88.0467 79.614 95.4705 91.3669 95.7356Z" fill="#2A2B39"/>
<path d="M102.864 98.4534C103.22 98.4534 103.572 98.3832 103.9 98.247C104.229 98.1107 104.528 97.911 104.779 97.6592C105.031 97.4074 105.23 97.1084 105.366 96.7794C105.503 96.4505 105.573 96.0978 105.573 95.7417V83.9914C105.572 83.2728 105.286 82.584 104.778 82.0761C104.27 81.5683 103.582 81.2831 102.864 81.2831C102.146 81.2831 101.458 81.5683 100.95 82.0761C100.442 82.584 100.156 83.2728 100.155 83.9914V95.7417C100.155 96.0978 100.225 96.4505 100.361 96.7794C100.497 97.1084 100.697 97.4074 100.949 97.6592C101.2 97.911 101.499 98.1107 101.827 98.247C102.156 98.3832 102.508 98.4534 102.864 98.4534Z" fill="#2A2B39"/>
<path opacity="0.2" d="M79.1655 62.193C83.1683 64.4835 87.709 65.6634 92.3193 65.611C96.9296 65.5585 101.442 64.2757 105.392 61.8947L104.068 57.1765L80.5921 57.5772L79.1655 62.193Z" fill="black"/>
<path d="M100.489 70.5575C100.638 70.881 100.848 71.172 101.11 71.414C101.371 71.6559 101.677 71.844 102.01 71.9675C102.344 72.091 102.699 72.1475 103.054 72.1338C103.409 72.1201 103.759 72.0364 104.082 71.8875L114.745 66.9763C115.069 66.8277 115.36 66.6167 115.602 66.3554C115.844 66.0941 116.032 65.7876 116.156 65.4535C116.279 65.1193 116.336 64.764 116.322 64.408C116.309 64.0519 116.225 63.702 116.077 63.3783C115.928 63.0546 115.717 62.7634 115.455 62.5214C115.194 62.2794 114.888 62.0913 114.554 61.9679C114.22 61.8445 113.865 61.7881 113.509 61.8021C113.154 61.8161 112.804 61.9002 112.481 62.0495L101.818 66.9608C101.494 67.1096 101.204 67.3207 100.962 67.582C100.72 67.8433 100.532 68.1497 100.409 68.4837C100.286 68.8177 100.229 69.1727 100.243 69.5286C100.257 69.8844 100.34 70.234 100.489 70.5575Z" fill="#2A2B39"/>
<path d="M77.3049 78.9502C74.771 75.965 69.4256 72.4596 58.1644 70.5158C38.5241 67.1241 43.6346 55.1797 43.8614 54.6732C44.337 53.6109 43.856 52.8992 42.7766 53.0897C42.1691 53.2416 41.6011 53.5219 41.1106 53.9115C40.6201 54.3012 40.2185 54.7914 39.9327 55.3491C39.6425 55.9702 33.0861 70.5953 55.2478 74.4207C75.1933 77.865 75.2645 86.2502 75.2592 86.3335C75.2061 87.2591 76.1274 87.5429 77.319 86.9685C78.5107 86.394 79.5208 85.1781 79.5755 84.2527C79.5866 84.0572 79.6642 81.7291 77.3049 78.9502Z" fill="#2A2B39"/>
<path d="M81.1941 98.4534C80.8384 98.4534 80.4861 98.3832 80.1575 98.247C79.8288 98.1107 79.5302 97.911 79.2787 97.6592C79.0272 97.4074 78.8276 97.1084 78.6915 96.7794C78.5554 96.4505 78.4853 96.0978 78.4854 95.7417V83.9914C78.4862 83.2728 78.772 82.584 79.2799 82.0761C79.7878 81.5683 80.4762 81.2831 81.1941 81.2831C81.9119 81.2831 82.6004 81.5683 83.1083 82.0761C83.6162 82.584 83.902 83.2728 83.9028 83.9914V95.7417C83.9028 96.0978 83.8328 96.4505 83.6967 96.7794C83.5605 97.1084 83.361 97.4074 83.1095 97.6592C82.8579 97.911 82.5593 98.1107 82.2307 98.247C81.902 98.3832 81.5498 98.4534 81.1941 98.4534Z" fill="#2A2B39"/>
<path d="M103.996 103.729V97.9833H75.2994V98.3426V103.729V123.838V129.583V150.051V155.796H81.0388H103.996V150.051H81.0388V129.583H103.996V123.838H81.0388V103.729H103.996Z" fill="#2A2B39"/>
<path d="M44.2598 102.133C46.2054 102.133 47.7826 100.555 47.7826 98.6069C47.7826 96.6593 46.2054 95.0804 44.2598 95.0804C42.3143 95.0804 40.7371 96.6593 40.7371 98.6069C40.7371 100.555 42.3143 102.133 44.2598 102.133Z" fill="#FF4D67"/>
<path d="M309.641 84.8928C311.587 84.8928 313.164 83.314 313.164 81.3663C313.164 79.4187 311.587 77.8398 309.641 77.8398C307.696 77.8398 306.118 79.4187 306.118 81.3663C306.118 83.314 307.696 84.8928 309.641 84.8928Z" fill="#FF4D67"/>
<path d="M202.393 73.5297C204.338 73.5297 205.915 71.9508 205.915 70.0032C205.915 68.0555 204.338 66.4767 202.393 66.4767C200.447 66.4767 198.87 68.0555 198.87 70.0032C198.87 71.9508 200.447 73.5297 202.393 73.5297Z" fill="#FF4D67"/>
<path d="M83.5691 70.5575C83.4204 70.881 83.2095 71.172 82.9485 71.414C82.6875 71.6559 82.3814 71.844 82.0477 71.9675C81.7141 72.091 81.3594 72.1475 81.004 72.1338C80.6485 72.1201 80.2993 72.0364 79.9761 71.8875L69.3127 66.9763C68.9892 66.8277 68.6981 66.6167 68.456 66.3554C68.214 66.0941 68.0258 65.7876 67.9021 65.4535C67.7785 65.1193 67.7219 64.764 67.7355 64.408C67.7491 64.0519 67.8327 63.702 67.9815 63.3783C68.1303 63.0546 68.3413 62.7634 68.6026 62.5214C68.8639 62.2794 69.1702 62.0913 69.5041 61.9679C69.8381 61.8445 70.193 61.7881 70.5487 61.8021C70.9044 61.8161 71.2538 61.9002 71.577 62.0495L82.2405 66.9608C82.5636 67.1096 82.8543 67.3207 83.096 67.582C83.3377 67.8433 83.5255 68.1497 83.6489 68.4837C83.7723 68.8177 83.8287 69.1727 83.815 69.5286C83.8013 69.8844 83.7177 70.234 83.5691 70.5575Z" fill="#2A2B39"/>
<path d="M131.154 62.9501C133.1 62.9501 134.677 61.3712 134.677 59.4236C134.677 57.476 133.1 55.8971 131.154 55.8971C129.209 55.8971 127.632 57.476 127.632 59.4236C127.632 61.3712 129.209 62.9501 131.154 62.9501Z" fill="#FF4D67"/>
<path d="M266.068 51.0013C268.062 51.0013 269.679 49.3826 269.679 47.3859C269.679 45.3891 268.062 43.7704 266.068 43.7704C264.073 43.7704 262.456 45.3891 262.456 47.3859C262.456 49.3826 264.073 51.0013 266.068 51.0013Z" fill="#EEEEEE"/>
<path d="M264.262 49.4949H267.572V53.5623C267.572 53.7799 267.53 53.9954 267.446 54.1964C267.363 54.3975 267.241 54.5802 267.088 54.734C266.934 54.8879 266.751 55.01 266.551 55.0933C266.35 55.1765 266.134 55.2194 265.917 55.2194C265.478 55.2194 265.057 55.0448 264.747 54.734C264.436 54.4233 264.262 54.0018 264.262 53.5623V49.4949H264.262Z" fill="#FF7185"/>
<path d="M266.068 46.4819C267.397 46.4819 268.475 46.0773 268.475 45.5781C268.475 45.0789 267.397 44.6742 266.068 44.6742C264.738 44.6742 263.66 45.0789 263.66 45.5781C263.66 46.0773 264.738 46.4819 266.068 46.4819Z" fill="#2A2B39"/>
<path d="M270.883 44.3729C271.382 44.3729 271.786 43.9682 271.786 43.4691C271.786 42.9699 271.382 42.5652 270.883 42.5652C270.384 42.5652 269.98 42.9699 269.98 43.4691C269.98 43.9682 270.384 44.3729 270.883 44.3729Z" fill="#EEEEEE"/>
<path d="M261.252 44.3729C261.751 44.3729 262.155 43.9682 262.155 43.4691C262.155 42.9699 261.751 42.5652 261.252 42.5652C260.753 42.5652 260.349 42.9699 260.349 43.4691C260.349 43.9682 260.753 44.3729 261.252 44.3729Z" fill="#EEEEEE"/>
<path d="M282.097 12.8104C281.786 12.811 281.485 12.9208 281.246 13.1207L273.032 19.9349C272.851 20.0851 272.713 20.2803 272.631 20.501C272.549 20.7217 272.527 20.96 272.566 21.1921C272.606 21.4241 272.705 21.6417 272.855 21.8229C273.005 22.0042 273.201 22.1427 273.421 22.2246L283.423 25.9389C283.643 26.0208 283.882 26.0431 284.113 26.0037C284.345 25.9643 284.563 25.8644 284.744 25.7142C284.925 25.564 285.063 25.3688 285.145 25.148C285.227 24.9273 285.249 24.689 285.21 24.4569L283.422 13.9285C283.384 13.6959 283.285 13.4776 283.134 13.2962C282.984 13.1147 282.788 12.9765 282.567 12.8959C282.416 12.8396 282.257 12.8107 282.097 12.8104Z" fill="#EEEEEE"/>
<path d="M250.942 12.8104C250.781 12.8107 250.622 12.8396 250.471 12.8959C250.25 12.9765 250.054 13.1147 249.904 13.2962C249.754 13.4776 249.654 13.6959 249.616 13.9285L247.828 24.4569C247.789 24.689 247.811 24.9273 247.893 25.148C247.975 25.3688 248.113 25.564 248.294 25.7142C248.475 25.8644 248.693 25.9643 248.925 26.0037C249.157 26.0431 249.395 26.0208 249.615 25.9389L259.617 22.2246C259.838 22.1427 260.033 22.0042 260.183 21.8229C260.333 21.6417 260.432 21.4241 260.472 21.1921C260.511 20.96 260.489 20.7217 260.407 20.501C260.325 20.2803 260.187 20.0851 260.006 19.9349L260.006 19.9346L251.792 13.1207C251.553 12.9208 251.252 12.811 250.942 12.8104Z" fill="#EEEEEE"/>
<path d="M268.977 11.7996C268.804 12.16 268.635 12.5242 268.477 12.896C266.609 17.2568 265.979 22.0488 266.656 26.7449C266.995 26.2527 267.351 25.7399 267.713 25.2215C266.938 20.7145 267.374 16.082 268.977 11.7996Z" fill="#2A2B39"/>
<path d="M266.269 8.48535C266.095 8.84574 265.926 9.21004 265.768 9.58178C263.9 13.9425 263.27 18.7346 263.947 23.4307C264.286 22.9385 264.642 22.4257 265.005 21.9073C264.229 17.4003 264.665 12.7678 266.269 8.48535Z" fill="#2A2B39"/>
<path d="M113.701 21.6239C113.857 21.188 113.897 20.7191 113.819 20.2628L112.345 11.5809L110.87 2.8991C110.791 2.43034 110.589 1.99082 110.286 1.6247C109.983 1.25859 109.589 0.978785 109.144 0.813413C108.698 0.648041 108.217 0.602925 107.749 0.682607C107.281 0.76229 106.842 0.963963 106.476 1.26735L99.7025 6.88634L95.7716 10.1472C93.0367 9.74513 90.2549 9.78712 87.5333 10.2716L83.4525 6.88633L76.6789 1.26734C76.3131 0.96395 75.8741 0.762278 75.4058 0.682595C74.9376 0.602912 74.4566 0.648023 74.0113 0.813395C73.5659 0.978768 73.1719 1.25857 72.8689 1.62469C72.5658 1.99081 72.3643 2.43033 72.2848 2.89909L70.8105 11.5809L69.3363 20.2628C69.2712 20.634 69.2855 21.0148 69.3781 21.3801C69.4708 21.7453 69.6398 22.0868 69.8739 22.382C67.4797 26.3452 66.1902 30.8783 66.1397 35.5096C66.0892 40.1408 67.2796 44.701 69.5868 48.7156C71.8941 52.7302 75.2339 56.0524 79.2588 58.3365C83.2837 60.6206 87.8466 61.7831 92.4725 61.7031C97.0985 61.6231 101.619 60.3034 105.562 57.8815C109.506 55.4596 112.729 52.0238 114.896 47.9319C117.064 43.8399 118.096 39.2413 117.886 34.6145C117.675 29.9877 116.23 25.5019 113.701 21.6239H113.701Z" fill="#2A2B39"/>
<path d="M92.029 43.016C94.0237 43.016 95.6407 41.3973 95.6407 39.4005C95.6407 37.4037 94.0237 35.785 92.029 35.785C90.0344 35.785 88.4174 37.4037 88.4174 39.4005C88.4174 41.3973 90.0344 43.016 92.029 43.016Z" fill="#EEEEEE"/>
<path d="M92.1795 47.234C91.9621 47.234 91.7469 47.1911 91.546 47.1079C91.3452 47.0246 91.1627 46.9025 91.009 46.7487C90.8553 46.5948 90.7334 46.4121 90.6502 46.211C90.567 46.01 90.5242 45.7945 90.5242 45.5769V41.5095H93.8348V45.5769C93.8348 45.7945 93.792 46.01 93.7088 46.211C93.6257 46.4121 93.5037 46.5948 93.35 46.7487C93.1963 46.9025 93.0138 47.0246 92.813 47.1079C92.6121 47.1911 92.3969 47.234 92.1795 47.234Z" fill="#FF7185"/>
<path d="M92.029 38.4966C93.3588 38.4966 94.4367 38.0919 94.4367 37.5927C94.4367 37.0935 93.3588 36.6888 92.029 36.6888C90.6992 36.6888 89.6212 37.0935 89.6212 37.5927C89.6212 38.0919 90.6992 38.4966 92.029 38.4966Z" fill="#2A2B39"/>
<path d="M95.9417 35.4837C95.9417 35.9828 96.3459 35.4837 96.8446 35.4837C97.3433 35.4837 97.7475 35.9828 97.7475 35.4837C97.747 35.2443 97.6516 35.0148 97.4824 34.8457C97.3131 34.6766 97.0837 34.5817 96.8446 34.5817C96.6054 34.5817 96.3761 34.6766 96.2068 34.8457C96.0375 35.0148 95.9421 35.2443 95.9417 35.4837Z" fill="#EEEEEE"/>
<path d="M88.1164 35.4837C88.1164 35.9828 87.7121 35.4837 87.2135 35.4837C86.7148 35.4837 86.3105 35.9828 86.3105 35.4837C86.311 35.2443 86.4064 35.0148 86.5757 34.8457C86.7449 34.6766 86.9743 34.5817 87.2135 34.5817C87.4526 34.5817 87.682 34.6766 87.8512 34.8457C88.0205 35.0148 88.1159 35.2443 88.1164 35.4837Z" fill="#EEEEEE"/>
<path d="M106.305 5.13534L98.0907 11.9492L98.0906 11.9495C97.9096 12.0997 97.7712 12.295 97.6894 12.5157C97.6077 12.7363 97.5854 12.9747 97.6248 13.2067C97.6642 13.4388 97.7639 13.6564 97.9139 13.8376C98.064 14.0188 98.259 14.1573 98.4794 14.2392L108.481 17.9536C108.702 18.0354 108.94 18.0578 109.172 18.0183C109.404 17.9789 109.621 17.8791 109.802 17.7289C109.983 17.5787 110.122 17.3834 110.203 17.1627C110.285 16.942 110.308 16.7036 110.268 16.4715L108.48 5.94314C108.442 5.71053 108.343 5.49228 108.193 5.3108C108.042 5.12933 107.847 4.99118 107.625 4.91055C107.475 4.85425 107.316 4.8253 107.155 4.82507C106.844 4.82566 106.543 4.93546 106.305 5.13534Z" fill="#EEEEEE"/>
<path d="M75.5297 4.91055C75.3085 4.99118 75.1126 5.12932 74.9624 5.3108C74.8121 5.49227 74.7128 5.71053 74.6747 5.94314L72.887 16.4715C72.8476 16.7036 72.8699 16.942 72.9517 17.1627C73.0335 17.3834 73.1719 17.5787 73.353 17.7289C73.534 17.8791 73.7514 17.9789 73.9833 18.0183C74.2151 18.0578 74.4532 18.0354 74.6737 17.9536L84.6757 14.2392C84.8961 14.1573 85.0912 14.0188 85.2412 13.8376C85.3912 13.6564 85.491 13.4388 85.5304 13.2067C85.5698 12.9747 85.5475 12.7363 85.4657 12.5157C85.3839 12.295 85.2456 12.0997 85.0645 11.9495L76.8503 5.13534C76.6119 4.93545 76.3111 4.82565 76.0001 4.82507C75.8395 4.8253 75.6802 4.85425 75.5297 4.91055Z" fill="#EEEEEE"/>
<path d="M89.1193 3.81421C89.2929 4.17461 89.4614 4.53889 89.62 4.91063C91.4878 9.2714 92.1177 14.0635 91.4404 18.7595C91.1015 18.2673 90.7454 17.7546 90.3831 17.2362C91.1589 12.7292 90.7227 8.09669 89.1193 3.81421Z" fill="#2A2B39"/>
<path d="M91.828 0.5C92.0016 0.860392 92.1702 1.22468 92.3287 1.59642C94.1965 5.95719 94.8264 10.7493 94.1491 15.4453C93.8102 14.9531 93.4541 14.4404 93.0919 13.922C93.8677 9.41496 93.4314 4.78248 91.828 0.5Z" fill="#2A2B39"/>
<path d="M80.768 16.1526L81.1496 11.2947L81.5312 6.43669C81.5518 6.17439 81.641 5.92214 81.7899 5.70529C81.9387 5.48844 82.142 5.31464 82.3792 5.20135C82.6164 5.08807 82.8792 5.03928 83.1413 5.05991C83.4033 5.08054 83.6553 5.16985 83.8719 5.31886L87.8838 8.07867L90.8134 10.094C91.0006 9.87451 91.2331 9.69829 91.495 9.57746C91.7568 9.45664 92.0416 9.39407 92.3299 9.39407C92.6182 9.39407 92.9031 9.45664 93.1649 9.57746C93.4268 9.69829 93.6593 9.87451 93.8465 10.094L96.7761 8.07867L100.788 5.31886C101.005 5.16985 101.257 5.08054 101.519 5.05991C101.781 5.03928 102.043 5.08807 102.281 5.20135C102.518 5.31464 102.721 5.48844 102.87 5.70529C103.019 5.92214 103.108 6.17439 103.129 6.43669L103.51 11.2947L103.892 16.1526C103.912 16.4149 103.864 16.678 103.751 16.9155C103.637 17.153 103.464 17.3564 103.247 17.5054C103.031 17.6545 102.779 17.7438 102.517 17.7644C102.255 17.785 101.992 17.7362 101.754 17.6229L97.361 15.5248L93.7511 13.8008C93.5654 13.9892 93.3441 14.1388 93.1001 14.2409C92.8561 14.343 92.5944 14.3956 92.3299 14.3956C92.0655 14.3956 91.8037 14.343 91.5598 14.2409C91.3158 14.1388 91.0945 13.9892 90.9088 13.8008L87.2989 15.5248L82.9054 17.623C82.6682 17.7363 82.4054 17.785 82.1433 17.7644C81.8813 17.7438 81.6293 17.6545 81.4127 17.5055C81.1961 17.3565 81.0225 17.153 80.9093 16.9155C80.7962 16.678 80.7474 16.4149 80.768 16.1526Z" fill="#FF4D67"/>
</g>
<defs>
<clipPath id="clip0_531_3261">
<rect width="348" height="180" fill="white" transform="translate(0 0.5)"/>
</clipPath>
</defs>
</svg>
